<?xml version="1.0" standalone="no"?>
<!DOCTYPE svg PUBLIC "-//W3C//DTD SVG 20010904//EN"
 "http://www.w3.org/TR/2001/REC-SVG-20010904/DTD/svg10.dtd">
<svg version="1.0" xmlns="http://www.w3.org/2000/svg"
 width="1200.000000pt" height="1200.000000pt" viewBox="0 0 1200.000000 1200.000000"
 preserveAspectRatio="xMidYMid meet">

<g transform="translate(0.000000,1200.000000) scale(0.100000,-0.100000)"
fill="#000000" stroke="none">
<path d="M0 6000 l0 -6000 6000 0 6000 0 0 6000 0 6000 -6000 0 -6000 0 0
-6000z m8860 2381 c518 -52 819 -178 1101 -463 165 -165 326 -452 403 -715 13
-48 13 -52 -2 -57 -20 -6 -1287 -236 -1300 -236 -5 0 -14 19 -21 43 -37 124
-152 276 -266 352 -64 42 -159 79 -259 102 -89 20 -345 22 -431 4 -436 -91
-679 -380 -760 -902 -23 -148 -30 -464 -15 -634 31 -360 105 -588 246 -759
189 -230 471 -339 834 -323 152 7 241 24 407 82 154 52 239 90 356 156 l87 51
0 209 0 209 -460 0 -460 0 0 460 0 460 1065 0 1065 0 0 -945 0 -946 -127 -83
c-378 -247 -762 -430 -1083 -515 -130 -35 -347 -73 -525 -93 -189 -21 -755
-17 -925 5 -585 79 -941 241 -1260 574 -326 339 -524 798 -586 1354 -22 202
-15 607 15 803 81 521 278 929 597 1236 289 278 615 449 999 524 120 23 331
50 465 60 102 7 734 -3 840 -13z m-3163 -589 c1 -294 -1 -540 -4 -548 -4 -12
-108 -14 -703 -14 -627 0 -698 -2 -704 -16 -3 -9 -6 -760 -6 -1670 l0 -1654
-685 0 -685 0 0 1670 0 1670 -700 0 -700 0 0 550 0 550 2093 -2 2092 -3 2
-533z m-1789 -4749 l3 -73 -96 0 -95 0 0 -225 0 -225 -95 0 -95 0 0 225 0 225
-90 0 -90 0 0 75 0 75 278 -2 277 -3 3 -72z m830 66 c122 -26 168 -171 86
-268 -14 -17 -40 -36 -59 -42 l-33 -12 31 -21 c19 -13 52 -60 89 -126 32 -57
58 -108 58 -112 0 -5 -46 -8 -102 -8 l-103 0 -55 102 c-63 117 -80 138 -115
138 l-25 0 0 -120 0 -120 -90 0 -90 0 0 300 0 300 180 0 c98 0 201 -5 228 -11z
m996 -149 c32 -85 82 -219 111 -297 l53 -143 -97 0 -97 0 -15 48 -15 47 -104
0 -104 0 -14 -47 -13 -48 -96 0 c-72 0 -94 3 -91 13 3 6 54 142 113 300 l108
288 101 -3 101 -3 59 -155z m696 -2 c28 -90 59 -185 67 -213 l17 -50 44 140
c24 77 53 172 65 210 l22 70 93 3 c50 1 92 -1 92 -5 0 -4 -49 -138 -108 -298
l-107 -290 -102 -3 c-89 -2 -101 -1 -108 15 -50 129 -215 572 -215 577 0 3 43
6 95 6 l94 0 51 -162z m1290 97 l0 -65 -155 0 -155 0 0 -45 0 -45 145 0 145 0
0 -65 0 -65 -145 0 -145 0 0 -55 0 -55 160 0 160 0 0 -70 0 -70 -250 0 -250 0
0 300 0 300 245 0 245 0 0 -65z m630 -160 l0 -225 145 0 145 0 0 -75 0 -75
-235 0 -235 0 0 300 0 300 90 0 90 0 0 -225z m-6467 -973 c45 -20 88 -66 106
-114 12 -31 13 -31 -86 -48 l-72 -13 -30 31 c-28 31 -49 37 -111 32 -68 -5
-103 -66 -103 -177 1 -86 21 -129 73 -156 64 -33 172 -6 178 45 3 26 2 27 -55
30 l-58 3 -3 63 -3 62 146 0 145 0 0 -123 c0 -143 3 -138 -104 -188 -87 -41
-218 -51 -310 -25 -113 33 -184 131 -193 266 -12 171 73 299 218 330 68 14
211 4 262 -18z m1890 13 c102 -26 173 -94 198 -189 19 -69 7 -213 -21 -270
-46 -90 -124 -136 -245 -144 -152 -9 -250 39 -305 152 -31 63 -32 68 -28 168
5 122 22 164 94 227 26 22 50 41 53 41 3 1 29 7 56 15 66 18 128 18 198 0z
m1098 -8 c58 -24 128 -110 116 -142 -3 -7 -40 -18 -86 -25 l-81 -12 -21 25
c-42 55 -135 53 -183 -3 -41 -50 -48 -179 -12 -248 21 -41 78 -66 133 -58 64
9 103 32 103 61 0 24 -3 25 -60 25 l-60 0 0 65 0 65 140 0 140 0 0 -129 0
-130 -53 -30 c-140 -80 -334 -81 -443 -3 -79 57 -123 191 -103 313 20 126 94
208 216 239 52 13 212 5 254 -13z m5595 -8 c45 -22 96 -78 115 -128 12 -30 7
-34 -77 -50 l-66 -14 -29 36 c-53 64 -148 56 -185 -15 -22 -41 -25 -168 -5
-216 37 -90 185 -77 206 18 4 17 11 30 17 30 12 0 151 -40 156 -45 2 -2 -7
-26 -19 -54 -47 -110 -142 -159 -288 -148 -91 6 -138 25 -187 74 -62 62 -79
112 -79 233 0 95 3 111 28 162 26 52 61 89 115 117 68 36 221 36 298 0z
m-7518 -46 l3 -63 -156 0 -155 0 0 -45 0 -45 140 0 140 0 0 -65 0 -65 -140 0
-140 0 0 -55 0 -55 155 0 155 0 0 -70 0 -70 -250 0 -250 0 0 300 0 300 248 -2
247 -3 3 -62z m2911 56 c62 -14 97 -42 116 -94 25 -63 14 -125 -31 -175 -19
-21 -46 -41 -61 -45 l-26 -6 35 -30 c23 -18 55 -66 87 -128 28 -55 51 -102 51
-105 0 -3 -46 -6 -102 -6 l-103 0 -55 106 c-55 106 -79 134 -112 134 -16 0
-18 -12 -18 -120 l0 -120 -95 0 -95 0 0 300 0 300 183 0 c100 0 202 -5 226
-11z m1025 -226 c49 -131 99 -266 112 -300 l24 -63 -98 0 -98 0 -13 50 -13 50
-103 0 -103 0 -17 -50 -17 -50 -94 0 -94 0 24 63 c13 34 63 169 112 300 l89
237 100 0 101 0 88 -237z m909 226 c87 -24 135 -103 123 -202 -13 -111 -77
-158 -223 -165 l-93 -4 0 -109 0 -109 -95 0 -95 0 0 300 0 300 173 0 c94 0
189 -5 210 -11z m747 -94 l0 -105 100 0 100 0 0 105 0 105 90 0 90 0 0 -300 0
-300 -90 0 -90 0 0 120 0 120 -100 0 -100 0 0 -120 0 -120 -95 0 -95 0 0 300
0 300 95 0 95 0 0 -105z m1030 -195 l0 -300 -90 0 -90 0 0 300 0 300 90 0 90
0 0 -300z"/>
<path d="M4517 2993 c-4 -3 -7 -30 -7 -60 l0 -53 65 0 c52 0 69 4 85 20 21 21
25 46 11 68 -14 23 -137 43 -154 25z"/>
<path d="M5540 2858 c-13 -46 -25 -89 -28 -95 -3 -10 12 -13 57 -13 34 0 61 2
61 6 0 16 -55 184 -60 184 -3 0 -17 -37 -30 -82z"/>
<path d="M3630 1797 c-44 -16 -70 -61 -77 -135 -11 -119 36 -192 124 -192 38
0 50 5 78 33 27 27 34 44 40 90 11 88 -12 174 -53 196 -32 17 -77 20 -112 8z"/>
<path d="M5640 1761 l0 -61 63 0 c71 0 97 17 97 62 0 37 -19 48 -94 55 l-66 6
0 -62z"/>
<path d="M6665 1685 c-15 -49 -30 -96 -32 -102 -4 -10 11 -13 56 -13 42 0 61
4 61 13 0 6 -13 53 -29 102 l-28 90 -28 -90z"/>
<path d="M7600 1744 l0 -67 53 6 c77 9 107 54 71 105 -12 18 -25 22 -70 22
l-54 0 0 -66z"/>
</g>
</svg>
